<?xml version="1.0" encoding="UTF-8"?>
<svg version="1.1" viewBox="0 0 2041 2048" width="1280" height="1280" xmlns="http://www.w3.org/2000/svg">
<path transform="translate(489,240)" d="m0 0h978l17 28 19 32 9 15 19 32 17 28 38 64 17 28 19 32 17 28 17 29 17 28 17 29 17 28 19 32 12 20 19 32 17 28 19 32 17 28 17 29 17 28 17 29 17 28 19 32 12 20 19 32 17 28 10 17-1 5-17 28-19 32-12 20-19 32-17 28-19 32-17 28-17 29-17 28-17 29-17 28-19 32-12 20-19 32-17 28-38 64-17 28-19 32-15 25-19 32-17 28-17 29-17 28-19 32-12 20-19 32-17 28-6 10h-978l-10-16-19-32-17-28-17-29-17-28-19-32-12-20-19-32-17-28-38-64-17-28-38-64-17-28-19-32-15-25-19-32-17-28-17-29-17-28-19-32-12-20-19-32-17-28-19-32-17-28-17-29-8-13 5-10 17-28 16-27 19-32 17-28 38-64 17-28 38-64 17-28 19-32 17-28 17-29 17-28 17-29 17-28 19-32 12-20 19-32 17-28 19-32 17-28 17-29 17-28 17-29 17-28 19-32 10-16z" fill="#04889B"/>
<path transform="translate(489,240)" d="m0 0h977l-2 5-19 32-17 28-38 64-17 28-16 27-17 28-17 29-17 28-17 29-17 28-19 32-9 15-19 32-17 28-19 32-15 25-19 32-17 28-17 29-17 28-11 18h-18l-1-242-293 1-9 1-21 1-9 2-11 1-16 4-10 2-17 5-14 5-15 7-14 8-10 7-9 7-4 4h-2v2l-7 6-1 2h-2l-2 4-8 10-8 13-8 17-5 14-2 8-3 13-3 35 2 28 1 11 3 13 3 11 5 14 12 24 10 14v2h2l7 8 10 10 2 1v2l4 2 13 10 14 8 16 8 12 4 10 4 17 5 10 2-1 5-14 22-13 22-12 19-14 23-15 24-32 52-13 21-16 26-5 8-5 9h167l2-5 10-16 1-3h2l1-5 6-9 6-11 10-16 6-11 10-16 6-11 7-11 6-11 7-11 6-11 10-16 6-11 10-16 6-11 6-10 8-13h41l1 1v155l-17 29-9 15-19 32-17 28-13 22-12 20-19 32-17 28-13 22-19 32-17 28-19 32-17 28-17 29-17 28-17 29-17 28-19 32-9 15-19 32-17 28-19 32-15 25-19 32-17 28-17 29-8 13h-2l-19-32-17-28-38-64-17-28-38-64-17-28-38-64-17-28-38-64-17-28-19-32-15-25-19-32-17-28-17-29-17-28-19-32-12-20-19-32-17-28-19-32-17-28-17-29-8-13 5-10 17-28 16-27 19-32 17-28 38-64 17-28 38-64 17-28 19-32 17-28 17-29 17-28 17-29 17-28 19-32 12-20 19-32 17-28 19-32 17-28 17-29 17-28 17-29 17-28 19-32 10-16z" fill="#004058"/>
<path transform="translate(784,625)" d="m0 0h288l1 1 1 238 1 2 147 1 20 1 23 3 25 5 20 6 19 7 19 10 16 10 11 9 4 3v2l3 1v2h2l7 8 14 19 11 23 5 15 3 12 2 12 1 11v40l-2 15-2 12-4 15-6 16-8 16-8 12-8 11h-2l-2 4-12 12h-2v2l-18 13-10 6-15 8-21 8-15 5-13 3h-5l3 7 16 26 13 21 16 26 13 21 16 26 13 21 16 26 13 21 16 26 5 8v2l-2 1h-161l-4-5-12-21-6-9-6-11-10-16-6-11-7-11-6-11-10-16-6-11-7-11-6-11-7-11-6-11-10-16-6-11-7-11-6-11-6-9h-45v222l-2 2h-141l-3-1-1-465h-43l-13 21-6 11-7 11-6 11-7 11-6 11-10 16-6 11-7 11-6 11-10 16-6 11-7 11-6 11-7 11-6 11-10 16-6 11h-164l3-7 13-21 16-26 26-42 16-26 13-21 32-52 13-21 7-11 1-4-11-2-8-2-17-5-9-4-10-4-16-8-12-8-14-10v-2l-4-2-12-12v-2h-2l-13-18-6-10-8-18-5-15-3-12-3-22v-44l3-21 6-22 5-12 8-16 14-19 4-5 3-3h2l1-3h2v-2l14-11 10-7 10-6 16-8 20-7 20-6 13-3 36-5z" fill="#FDFDFD"/>
<path transform="translate(1641)" d="m0 0h267l19 32 15 25 19 32 17 28 38 64 17 28 8 13-2 5-17 29-17 28-19 32-9 15-19 32-17 28-19 32-14 23h-267l-10-16-19-32-17-28-35-59-17-28-19-32-16-27 2-6 17-28 19-32 15-25 19-32 17-28 19-32 17-28z" fill="#04889B"/>
<path transform="translate(146,1718)" d="m0 0h199l17 29 19 32 17 28 38 64 7 12-17 29-17 28-16 27-19 32-17 28-12 20-1 1h-198l-19-32-9-15-19-32-17-28-19-32-15-25 1-4 17-29 17-28 13-22 19-32 17-28z" fill="#014159"/>
<path transform="translate(793,745)" d="m0 0h134l1 1v120l-3 3h-132l-16-2-11-2-13-4-12-6-10-9-6-8-4-8-3-10v-28l3-10 7-12 8-8 11-7 7-3 19-5z" fill="#004058"/>
<path transform="translate(1075,987)" d="m0 0h128l22 2 20 5 12 6 10 7 6 7 6 11 3 14v18l-4 16-4 8-9 11-12 8-12 5-11 3-13 2-16 1h-126l-1-1v-122z" fill="#04889B"/>
<path transform="translate(793,745)" d="m0 0h134l1 1v120l-3 3h-132l-16-2-11-2-13-4-12-6-10-9-6-8-4-8-3-10v-28l3-10 7-12 8-8 11-7 7-3 19-5zm-2 2-14 1-16 4-9 3-12 6-11 10-5 8-3 9-2 8v19l3 13 5 11h2l2 5 9 8 11 6 3 2 18 5 25 3h127l2-2v-119z" fill="#04889B"/>
<path transform="translate(146,1718)" d="m0 0h199l-1 2h-196l-4 3z" fill="#09899C"/>
</svg>
